<?xml version="1.0" encoding="utf-8" ?>
<svg xmlns="http://www.w3.org/2000/svg" xmlns:xlink="http://www.w3.org/1999/xlink" width="1024" height="1024">
	<path fill="#E2E2E2" d="M0 0L1024 0L1024 1024L0 1024L0 0Z"/>
	<path d="M487.287 540.751C503.978 540.23 520.807 540.68 537.516 540.659L641.247 540.674C634.673 552.115 627.456 563.296 620.602 574.582L578.148 644.363Q541.234 705.739 503.307 766.496L391.953 766.485L359.735 766.486C353.187 766.487 346.419 766.859 339.909 766.144C317.838 763.721 300.232 753.071 286.397 735.974C280.79 728.229 276.201 720.006 273.369 710.834C271.015 703.208 269.924 695.338 268.521 687.502Q265.97 673.491 263.229 659.516L240.814 541.487L373.854 541.609C381.063 577.365 387.123 613.264 394.9 648.922C397.104 659.03 398.683 669.463 401.463 679.415C407.659 673.283 415.688 657.275 420.601 649.091C436.307 622.929 452.467 597.003 468.524 571.054C473.798 562.531 481.379 547.775 487.287 540.751Z"/>
	<path d="M519.166 405.505L545.779 405.497L545.73 427.479L556.623 427.498L556.581 405.543L583.383 405.515L583.445 427.041L591.52 427.019C592.169 433.073 591.875 439.372 591.712 445.455C596.584 436.532 603.015 428.622 613.188 425.718Q613.896 425.515 614.613 425.347Q615.33 425.18 616.054 425.047Q616.779 424.915 617.509 424.819Q618.239 424.722 618.973 424.662Q619.706 424.601 620.442 424.577Q621.178 424.553 621.915 424.565Q622.651 424.577 623.386 424.625Q624.12 424.673 624.852 424.757Q625.583 424.841 626.31 424.962Q627.036 425.082 627.756 425.238Q628.476 425.393 629.187 425.584Q629.898 425.775 630.599 426.001Q631.3 426.227 631.989 426.487Q632.678 426.747 633.353 427.04Q634.029 427.334 634.689 427.66Q635.349 427.986 635.992 428.345C645.804 433.889 652.122 444.047 655.083 454.686C659.595 470.899 658.637 489.977 650.103 504.75C645.631 512.492 638.69 519.444 629.795 521.683C621.7 523.721 611.96 523.123 604.75 518.683C595.303 512.865 591.15 502.18 588.649 491.897C586.232 479.764 587.071 468.315 588.745 456.18C588.166 454.807 588.191 454.91 586.813 454.315C585.546 454.393 584.759 454.345 583.698 455.119C582.404 460.946 583.483 467.876 583.475 473.874Q583.254 497.727 583.455 521.579L556.852 521.53Q557.024 487.792 556.66 454.055L545.922 454.089L545.896 521.541L519.457 521.56C519.195 499.027 519.719 476.463 519.615 453.923L512.011 453.855L512.014 427.5L519.039 427.402Q518.925 416.453 519.166 405.505Z"/>
	<path fill="#E2E2E2" d="M619.971 451.814C620.849 451.816 621.922 451.746 622.773 451.947C623.893 452.212 624.77 453.048 625.437 453.95C630.394 460.652 629.685 475.784 628.746 483.699C628.162 488.628 627.17 494.184 623.093 497.422C622.923 497.429 622.752 497.437 622.582 497.441C620.701 497.49 619.307 497.399 617.924 495.959C613.715 491.576 613.721 481.627 613.704 475.9C613.679 468.113 614.157 457.639 619.971 451.814Z"/>
	<path d="M115.73 405.249C120.082 405.224 124.436 405.286 128.788 405.316C128.927 412.246 128.702 419.216 128.633 426.149Q133.088 426.053 137.54 426.223L137.595 450.942C139.688 444.34 142.669 438.023 147.578 433.032C152.799 427.724 159.903 424.352 167.418 424.387C174.674 424.421 181.291 427.617 186.297 432.752C198.267 445.029 199.562 465.687 199.408 481.822C186.679 482.281 173.805 481.899 161.059 481.926C160.996 485.507 160.98 489.216 161.796 492.719C162.493 495.712 164.144 499.934 167.103 501.417C168.393 502.064 169.403 502.203 170.782 501.74C174.25 500.574 176.002 495.56 177.294 492.522L198.19 492.521C197.889 494.072 197.587 495.627 197.203 497.159C194.913 506.273 189.322 515.887 180.932 520.58C174.914 523.945 167.297 524.671 160.684 522.792C152.149 520.366 145.743 514.523 141.424 506.908C132.556 491.272 131.882 470.991 136.631 453.983L129.36 453.949L129.405 522.036L102.961 522.047L102.9 453.943C100.349 453.955 97.8893 453.865 95.346 453.633L95.5129 522.185L68.9415 522.168Q69.236 474.081 69.0284 425.993L95.3877 426.178C95.5451 434.277 95.525 442.388 95.5874 450.49L95.4178 450.735C96.2491 449.897 95.9872 449.856 96.1216 448.687C96.9617 441.374 96.3025 433.662 96.3941 426.271L102.024 426.176Q102.299 415.766 102.444 405.353L115.73 405.249Z"/>
	<path fill="#E2E2E2" d="M165.507 447.477C166.434 447.408 167.47 447.284 168.39 447.478C170.251 447.87 171.495 449.703 172.351 451.261C174.401 454.991 175.681 459.858 174.497 464.037C173.135 464.863 172.119 464.683 170.545 464.729L160.502 464.801C160.684 458.352 160.624 452.334 165.507 447.477Z"/>
	<path d="M759.605 424.197C763.063 423.885 766.645 423.711 770.092 424.24C778.002 425.454 783.319 429.595 787.824 435.944L788.385 435.286C793.192 429.679 799.051 424.597 806.803 424.188Q807.34 424.156 807.878 424.152Q808.416 424.148 808.953 424.172Q809.49 424.196 810.025 424.249Q810.561 424.301 811.093 424.382Q811.624 424.462 812.151 424.57Q812.678 424.679 813.199 424.814Q813.719 424.95 814.232 425.113Q814.744 425.276 815.248 425.465Q815.751 425.654 816.244 425.87Q816.737 426.086 817.217 426.327Q817.698 426.568 818.166 426.834Q818.633 427.1 819.086 427.39Q819.539 427.68 819.976 427.994Q820.413 428.307 820.833 428.644Q821.253 428.98 821.655 429.337Q822.057 429.695 822.439 430.073C826.131 433.672 827.86 438.198 828.911 443.128C831.252 454.106 830.395 466.201 830.39 477.406L830.257 522L803.569 522.001L803.623 479.169C803.636 472.139 804.192 464.799 803.591 457.802C803.426 455.884 803.066 453.356 801.929 451.736C801.149 450.623 800.395 450.002 799 449.876C797.748 449.763 796.534 450.127 795.609 450.995C794.005 452.503 793.421 454.939 793.118 457.029C792.294 462.698 792.919 469.006 792.975 474.763Q793.035 488.694 792.917 502.625L792.827 522.058L767.477 522.116C767.467 512.164 768.623 458.787 766.011 452.538C765.377 451.022 764.745 450.3 763.177 449.669C761.959 449.673 761.118 449.751 760.212 450.666C758.723 452.172 758.218 454.485 758.013 456.514C757.273 463.823 757.995 471.83 758.081 479.201L758.402 521.744C749.435 521.799 740.444 521.583 731.474 521.516C731.581 490.93 731.953 460.261 731.191 429.685C740.295 426.899 750.152 425.258 759.605 424.197Z"/>
	<path d="M202.015 403.506C211.157 403.4 220.312 403.521 229.455 403.54Q229.402 413.685 229.547 423.828C237.181 424.133 243.579 425.096 249.861 429.958C259.942 437.76 265.107 452.626 266.494 464.848C268.357 481.256 265.368 497.128 255.056 510.194Q254.562 510.718 254.053 511.227C240.108 525.13 220.182 522.343 202.184 522.371Q202.645 462.938 202.015 403.506Z"/>
	<path fill="#E2E2E2" d="M228.024 446.162C229.396 446.683 230.649 447.26 231.869 448.087C236.66 451.335 239.197 457.364 240.346 462.861C242.398 472.685 241.739 484.37 236.12 492.888C233.853 495.381 231.406 496.633 228.385 497.969C227.253 480.914 227.966 463.268 228.024 446.162Z"/>
	<path d="M953.805 402.705Q967.439 402.645 981.071 402.845C981.173 412.626 980.978 422.426 980.912 432.209C985.082 428.014 989.637 424.398 995.831 424.135C1000.67 423.93 1005.32 425.195 1008.83 428.646C1012.2 431.945 1013.89 436.31 1014.79 440.844C1016.82 451.021 1016.05 462.204 1016.08 472.575Q1016.15 497.524 1015.97 522.472L990.041 522.409L989.993 482.052C989.981 475.883 991.529 452.802 987.632 448.888C986.935 448.188 986.46 447.858 985.426 447.965C984.405 448.072 983.261 449.148 982.561 449.85C981.223 451.191 980.818 452.684 980.627 454.514C979.892 461.54 980.525 469.186 980.514 476.278L980.433 522.478L953.767 522.445C954.417 507.738 953.904 492.91 953.758 478.193C953.509 453.109 953.225 427.783 953.805 402.705Z"/>
	<path d="M475.691 423.683C481.747 423.554 487.394 424.932 492.507 428.281C502.633 434.914 509.308 448.097 511.617 459.676C514.764 475.458 512.566 494.165 503.435 507.689C497.665 516.234 490.413 521.05 480.319 523.06C472.15 523.253 465.323 521.422 458.887 516.275C448.664 508.098 443.617 494.251 442.193 481.596C440.489 466.451 443.251 448.076 453.089 435.928C458.953 428.689 466.463 424.695 475.691 423.683Z"/>
	<path fill="#E2E2E2" d="M475.641 449.966C476.292 449.962 476.27 449.947 477.017 450.023C479.278 450.253 480.982 451.243 482.305 453.092C487.326 460.11 486.694 478.365 485.098 486.517C484.299 490.6 483.135 493.585 479.619 495.946C478.735 495.999 477.843 496.064 476.957 496.008C475.217 495.898 474.042 495.13 472.97 493.825C467.627 487.314 468.401 470.818 469.413 462.9C470.075 457.72 471.393 453.287 475.641 449.966Z"/>
	<path d="M690.974 424.664C697.391 424.347 703.117 425.296 708.707 428.675C718.689 434.71 724.312 445.404 726.928 456.461C730.751 472.614 729.227 492.625 720.277 506.925C714.666 515.891 707.24 521.558 696.965 523.988Q696.285 524.07 695.602 524.119Q694.919 524.169 694.234 524.186Q693.55 524.202 692.865 524.186Q692.18 524.17 691.497 524.122Q690.814 524.073 690.134 523.992Q689.454 523.911 688.779 523.797Q688.103 523.683 687.434 523.538Q686.765 523.392 686.104 523.215Q685.442 523.037 684.79 522.828Q684.138 522.619 683.496 522.379Q682.854 522.14 682.225 521.869Q681.596 521.599 680.98 521.299Q680.365 520.999 679.764 520.67Q679.163 520.341 678.579 519.984Q677.995 519.627 677.428 519.242Q676.862 518.857 676.314 518.446C665.978 510.829 661.19 498.574 659.335 486.262C656.942 470.377 658.958 450.999 668.854 437.797C674.529 430.225 681.648 426.041 690.974 424.664Z"/>
	<path fill="#E2E2E2" d="M691.38 450.388C692.232 450.423 693.115 450.421 693.959 450.562C695.408 450.805 696.566 451.828 697.345 453.034C701.882 460.056 701.487 481.795 699.514 490.131C698.668 493.705 697.723 496.068 694.541 498.002C692.582 497.856 691.144 497.551 689.765 496.055C685.037 490.924 685.34 479.507 685.559 472.975C685.792 466.043 685.975 455.428 691.38 450.388Z"/>
	<path d="M398.092 424.706Q401.986 424.421 405.89 424.363C413.966 424.198 423.266 424.142 429.387 430.294C433.059 433.983 435.229 438.838 436.431 443.841C439.486 456.555 438.491 470.7 438.457 483.71L438.341 521.612C429.558 521.797 420.75 521.631 411.965 521.597C411.957 498.079 412.923 473.764 411.311 450.348Q411.09 449.828 410.844 449.319C409.944 447.476 408.247 445.966 406.182 445.509C404.776 445.197 404.467 445.443 403.303 446.12C402.65 447.135 402.335 447.949 402.255 449.167C401.753 456.805 402.423 464.88 402.462 472.572L402.555 521.623L376.445 521.762L376.206 429.174C383.225 426.075 390.525 425.369 398.092 424.706Z"/>
	<path d="M835.529 426.536L861.494 426.501L861.511 470.835C861.514 477.644 860.686 485.575 861.939 492.222C862.42 494.778 863.088 497.171 865.322 498.706C866.57 498.704 867.12 498.567 867.991 497.603C869.548 495.884 870.154 493.083 870.431 490.858C871.227 484.475 870.538 477.292 870.544 470.817L870.617 426.597L896.541 426.647L896.537 453.961L896.949 476.538C897.145 490.002 897.964 505.166 888.206 515.819C882.889 521.623 875.579 524.543 867.812 524.788C859.689 525.045 851.511 522.797 845.592 516.973C841.093 512.545 838.461 506.746 837.065 500.662C834.534 489.631 835.511 477.51 835.533 466.245L835.529 426.536Z"/>
	<path d="M306.533 426.275Q319.339 426.147 332.142 426.446C332.147 435.248 332.056 444.063 332.448 452.858L332.53 476.396C332.562 488.939 333.994 504.406 324.868 514.407C319.075 520.755 310.515 523.52 302.118 523.787C293.844 524.05 285.198 522.09 279.095 516.158C275.697 512.856 273.68 508.748 272.618 504.172C270.131 493.451 271.133 480.988 271.121 470L271.021 426.381L295.99 426.469L296.005 469.413C296.011 476.485 295.516 483.967 296.182 491.006C296.334 492.614 296.677 494.332 297.545 495.724C298.348 497.011 299.599 497.875 301.13 498.053C302.391 498.199 303.548 497.983 304.461 497.056C305.963 495.531 306.416 493.125 306.601 491.077C307.23 484.121 306.526 476.64 306.491 469.63L306.533 426.275Z"/>
	<path d="M2.78505 425.704L29.0643 425.647Q32.8447 452.42 35.5517 479.323C38.4528 461.613 39.6977 443.646 42.7353 425.965L68.5542 425.997L60.75 462.527L52.7608 500.907C51.2524 507.944 49.4494 514.917 48.1371 521.995L23.0127 522.069Q13.2019 473.823 2.78505 425.704Z"/>
	<path d="M340.622 405.986L368.323 405.847L368.142 426.492L374.747 426.595C375.113 435.375 374.951 444.242 374.724 453.026L367.556 453.074Q367.826 487.662 367.749 522.25L339.765 522.309L339.942 452.879L333.306 452.849Q333.258 439.648 333.4 426.448L340.825 426.837Q340.575 416.413 340.622 405.986Z"/>
	<path d="M935.854 423.661C940.162 423.221 944.13 423.731 948.381 424.385L948.365 450.815C945.076 449.143 941.843 448.322 938.243 449.589C934.446 450.924 931.795 454.233 930.18 457.799C926.281 466.406 926.397 479.513 930.028 488.197C931.541 491.814 934.044 495.332 937.841 496.762C941.845 498.271 945.452 497.097 949.164 495.461C949.314 504.367 949.232 513.27 949.477 522.176C946.11 523.077 942.883 523.479 939.411 523.65C931.545 523.62 924.374 521.942 917.912 517.275C907.891 510.037 902.903 497.834 901.11 485.946C898.737 470.206 900.159 452.181 910.018 439.086C916.67 430.25 924.941 425.234 935.854 423.661Z"/>
	<path d="M78.6213 396.214Q78.9377 396.141 79.2574 396.084Q79.577 396.026 79.8991 395.985Q80.2211 395.943 80.5448 395.917Q80.8685 395.891 81.1931 395.881Q81.5177 395.871 81.8424 395.877Q82.1671 395.883 82.4911 395.905Q82.8151 395.926 83.1376 395.964Q83.4602 396.001 83.7806 396.054Q84.1009 396.108 84.4183 396.176Q84.7356 396.245 85.0493 396.329Q85.3629 396.414 85.672 396.513Q85.9812 396.612 86.2851 396.727Q86.589 396.841 86.887 396.97Q87.1849 397.099 87.4762 397.243Q87.7675 397.386 88.0515 397.544Q88.3354 397.702 88.6114 397.873Q88.8873 398.044 89.1545 398.229Q89.4217 398.413 89.6796 398.611Q89.9375 398.808 90.1854 399.018Q90.4333 399.227 90.6708 399.449Q90.9081 399.67 91.1344 399.903Q91.3607 400.136 91.5754 400.38Q91.79 400.624 91.9925 400.878Q92.195 401.131 92.3848 401.395Q92.5747 401.658 92.7514 401.931Q92.9282 402.203 93.0914 402.484Q93.2546 402.765 93.4039 403.053Q93.5533 403.341 93.6883 403.637Q93.8234 403.932 93.9439 404.234Q94.0643 404.535 94.1699 404.842Q94.2755 405.149 94.366 405.461Q94.4565 405.773 94.5316 406.089Q94.6067 406.405 94.6663 406.724Q94.726 407.043 94.7699 407.365Q94.8139 407.687 94.842 408.01Q94.8702 408.334 94.8826 408.658Q94.8949 408.983 94.8914 409.307Q94.8879 409.632 94.8685 409.956Q94.8491 410.28 94.8139 410.603Q94.7787 410.926 94.7278 411.247Q94.6769 411.568 94.6104 411.885Q94.5439 412.203 94.462 412.517Q94.38 412.832 94.2828 413.141Q94.1856 413.451 94.0734 413.756Q93.9611 414.061 93.8342 414.36Q93.7072 414.659 93.5658 414.951Q93.4243 415.243 93.2688 415.528Q93.1133 415.813 92.944 416.09Q92.7747 416.367 92.5921 416.636Q92.4095 416.904 92.214 417.164Q92.0185 417.423 91.8106 417.672Q91.6027 417.922 91.3828 418.161Q91.1629 418.4 90.9317 418.628Q90.7004 418.856 90.4582 419.072Q90.2161 419.288 89.9637 419.493Q89.7113 419.697 89.4492 419.889Q89.1871 420.08 88.9159 420.259Q88.6448 420.438 88.3653 420.603Q88.0857 420.768 87.7984 420.92Q87.5111 421.071 87.2168 421.208Q86.9225 421.345 86.6218 421.468Q86.3211 421.591 86.0148 421.698Q85.7085 421.806 85.3973 421.899Q85.0861 421.992 84.7707 422.069Q84.4524 422.147 84.1307 422.209Q83.809 422.272 83.4846 422.318Q83.1602 422.364 82.8339 422.395Q82.5076 422.425 82.1803 422.439Q81.8529 422.454 81.5252 422.452Q81.1975 422.45 80.8703 422.432Q80.5431 422.413 80.2172 422.379Q79.8913 422.345 79.5675 422.295Q79.2436 422.245 78.9227 422.178Q78.6017 422.112 78.2844 422.031Q77.9671 421.949 77.6542 421.851Q77.3413 421.754 77.0336 421.641Q76.7259 421.528 76.4241 421.401Q76.1224 421.273 75.8273 421.131Q75.5322 420.988 75.2444 420.831Q74.9567 420.674 74.677 420.504Q74.3974 420.333 74.1265 420.148Q73.8556 419.964 73.5941 419.766Q73.3327 419.569 73.0812 419.359Q72.8298 419.149 72.5891 418.926Q72.3483 418.704 72.1188 418.47Q71.8893 418.236 71.6716 417.991Q71.4539 417.746 71.2486 417.491Q71.0432 417.236 70.8507 416.97Q70.6581 416.705 70.4789 416.431Q70.2997 416.156 70.1342 415.874Q69.9688 415.591 69.8174 415.3Q69.6661 415.009 69.5293 414.712Q69.3924 414.414 69.2705 414.11Q69.1485 413.806 69.0416 413.496Q68.9348 413.186 68.8434 412.871Q68.7519 412.557 68.6761 412.238Q68.6003 411.919 68.5403 411.597Q68.4803 411.275 68.4362 410.95Q68.3921 410.625 68.3641 410.299Q68.3361 409.972 68.3242 409.645Q68.3124 409.318 68.3166 408.99Q68.3209 408.662 68.3413 408.335Q68.3618 408.008 68.3983 407.682Q68.4348 407.357 68.4873 407.033Q68.5398 406.71 68.6082 406.389Q68.6767 406.069 68.7608 405.752Q68.8449 405.436 68.9445 405.123Q69.0441 404.811 69.159 404.504Q69.2739 404.197 69.4038 403.897Q69.5337 403.596 69.6782 403.302Q69.8228 403.008 69.9816 402.721Q70.1405 402.434 70.3133 402.156Q70.4861 401.878 70.6724 401.608Q70.8587 401.338 71.0581 401.078Q71.2575 400.818 71.4695 400.568Q71.6814 400.318 71.9054 400.079Q72.1294 399.84 72.365 399.612Q72.6005 399.384 72.847 399.168Q73.0934 398.953 73.3502 398.749Q73.6071 398.545 73.8736 398.355Q74.1401 398.164 74.4157 397.987Q74.6913 397.81 74.9754 397.646Q75.2594 397.483 75.5511 397.333Q75.8428 397.184 76.1415 397.05Q76.4403 396.915 76.7453 396.795Q77.0503 396.675 77.3608 396.571Q77.6713 396.466 77.9867 396.377Q78.302 396.288 78.6213 396.214Z"/>
</svg>
